<svg aria-hidden="true" style="position:absolute;width:0;height:0" xmlns="http://www.w3.org/2000/svg" overflow="hidden">
  <defs>
    <symbol id="antenna" viewBox="0 0 32 32">
      <path fill="var(--color1, #212121)" d="M30.773 22.098l-8.443-8.505.937-4.615c.242.094.499.144.758.146h.006a2.159 2.159 0 10-2.008-1.435l-4.96.605L8.972.161a.534.534 0 00-.377-.16.532.532 0 00-.373.155L6.709 1.66a.534.534 0 000 .754l.814.826a14.943 14.943 0 002.519 17.663.513.513 0 00.146.098c-.034.18-.051.364-.052.547v6.187h-6.4a2.67 2.67 0 00-2.667 2.667v1.067c0 .295.239.533.533.533h24.533a.533.533 0 00.533-.533v-1.067a2.67 2.67 0 00-2.667-2.667h-6.4v-2.742a15.09 15.09 0 003.049.32 14.854 14.854 0 007.04-1.783l.818.823a.534.534 0 00.377.16.532.532 0 00.373-.155l1.513-1.504a.534.534 0 000-.754zM23.28 6.233a1.066 1.066 0 11.752 1.822h-.003a1.067 1.067 0 01-.747-1.823h-.002zm-1.256 3.505l-.598 2.946-1.175-1.182 1.774-1.763zm-.605-.902l-1.92 1.909-1.485-1.493 3.405-.415zM24.004 28.8a1.6 1.6 0 011.6 1.6v.533H2.137V30.4a1.6 1.6 0 011.6-1.6h20.267zm-7.467-2.133v1.067h-5.333v-1.067h5.333zM11.204 25.6v-4.053c0-1.294 1.196-2.347 2.667-2.347s2.667 1.053 2.667 2.347V25.6h-5.333zm6.4-1.696v-2.357c0-1.882-1.675-3.413-3.733-3.413a3.8 3.8 0 00-3.281 1.786A13.87 13.87 0 018.311 4.033l18.602 18.708a13.818 13.818 0 01-9.309 1.163zm11.289-.684L7.836 2.039l.755-.752 7.935 7.98c.004 0 .006.007.01.01l13.115 13.191-.757.752z"/>
      <path fill="var(--color2, #2196f3)" d="M13.876 20.267h-.005a1.6 1.6 0 10-.004 3.2h.005a1.6 1.6 0 10.004-3.2zm.373 1.978a.534.534 0 01-.752-.756.534.534 0 01.373-.155.532.532 0 01.373.911h.005z"/>
    </symbol>
    <symbol id="astronaut" viewBox="0 0 32 32">
      <path fill="var(--color2, #2196f3)" d="M31.974 4.524a.534.534 0 00-.43-.363l-1.91-.278-.855-1.731c-.179-.365-.777-.365-.956 0l-.855 1.731-1.91.278a.535.535 0 00-.296.91l1.383 1.348-.326 1.903c-.034.2.048.402.212.522a.53.53 0 00.562.04l1.709-.899 1.709.899a.536.536 0 00.775-.563l-.326-1.903 1.383-1.348a.536.536 0 00.135-.547zm-2.463 1.327a.534.534 0 00-.153.472l.191 1.114-1-.526a.533.533 0 00-.498 0l-1.001.526.191-1.114a.534.534 0 00-.153-.472l-.81-.789 1.119-.163a.532.532 0 00.402-.292l.5-1.013.5 1.013a.535.535 0 00.402.292l1.119.163-.809.789zM26.134 20.522h-1.067v1.067h1.067v-1.067zM26.134 22.656h-1.067v1.067h1.067v-1.067zM27.2 21.589h-1.067v1.067H27.2v-1.067zM25.067 21.589H24v1.067h1.067v-1.067zM22.4 26.389h-1.067v1.067H22.4v-1.067zM22.4 28.522h-1.067v1.067H22.4v-1.067zM23.467 27.456H22.4v1.067h1.067v-1.067zM21.333 27.456h-1.067v1.067h1.067v-1.067zM16 24.256h-1.067v1.067H16v-1.067zM16 26.389h-1.067v1.067H16v-1.067zM17.067 25.322H16v1.067h1.067v-1.067zM14.933 25.322h-1.067v1.067h1.067v-1.067zM5.867 6.122H4.8v1.067h1.067V6.122zM5.867 8.255H4.8v1.067h1.067V8.255z"/>
      <path fill="var(--color2, #2196f3)" d="M6.933 7.189H5.866v1.067h1.067V7.189zM4.8 7.189H3.733v1.067H4.8V7.189z"/>
      <path fill="var(--color1, #212121)" d="M24.715 14.159a1.775 1.775 0 00-1.188-.705 1.778 1.778 0 00-1.34.352l-1.252.96-1.898 1.417-1.358-.541c2.421-1.086 4.114-3.508 4.114-6.32 0-3.823-3.123-6.933-6.961-6.933s-6.961 3.11-6.961 6.933a6.86 6.86 0 001.12 3.758l-2.764-.024h-.005c-.009 0-.015.004-.023.005a.515.515 0 00-.155.031l-.038.013c-.006.003-.013.003-.019.006l-3.233 1.596-.001.001-1.893.911a.397.397 0 00-.063.035 1.779 1.779 0 00-.598 2.295c.22.429.595.745 1.056.889a1.776 1.776 0 001.378-.128l1.388-.738 2.264-1.169 1.357-.008L2.2 22.211l-.002.001-1.339 1.333c-.316.315-.49.732-.49 1.178s.174.863.49 1.179c.325.323.752.485 1.179.485s.854-.162 1.18-.485l1.314-1.309 1.741-1.3.901.897-1.762 1.754-.002.001-1.339 1.333c-.316.315-.49.732-.49 1.178s.174.863.49 1.179c.325.323.753.485 1.18.485s.855-.162 1.18-.485l3.482-3.467.001-.002 1.01-1-.004-.004c.006-.006.015-.009.022-.015l5.166-5.658 3.471.494a.52.52 0 00.262-.033c.018-.006.033-.015.05-.023.019-.01.039-.015.058-.027l3.213-2.133c.012-.008.018-.021.029-.029.013-.01.029-.014.041-.026l1.271-1.191c.662-.62.753-1.635.212-2.362zM2.13 17.77a.714.714 0 01-.558.052.717.717 0 01-.213-1.26l1.314-.632.449 1.313-.992.527zm3.498-1.828l-1.548.8-.439-1.283 2.027-1.001-.04 1.484zm15.099-6.62a5.79 5.79 0 01-.599 2.559l-4.181-1.899a1.863 1.863 0 00-.788-1.388l1.464-4.86c2.378.756 4.105 2.974 4.105 5.588zm-11.789 0c0-3.235 2.644-5.867 5.894-5.867.253 0 .5.021.745.052l-1.432 4.754c-.019-.001-.037-.006-.057-.006-1.033 0-1.873.837-1.873 1.867s.84 1.867 1.873 1.867c.694 0 1.294-.383 1.618-.945l3.862 1.755a5.894 5.894 0 01-4.737 2.39c-3.25 0-5.894-2.632-5.894-5.867zm5.956.8c0 .441-.362.8-.806.8s-.806-.359-.806-.8c0-.441.362-.8.806-.8s.806.359.806.8zM2.465 25.146a.608.608 0 01-.854.001.592.592 0 010-.844l.962-.959.851.848-.959.955zm3.214 3.734a.608.608 0 01-.855.001.592.592 0 010-.844l.963-.959.852.848-.96.955zm3.481-3.469l-.002.001-1.765 1.76-.852-.848 1.763-1.755.002-.001c.04-.04.065-.088.09-.135.007-.014.02-.026.026-.04.017-.041.019-.085.026-.129.003-.025.014-.047.014-.073 0-.036-.013-.07-.02-.106-.006-.032-.006-.065-.019-.095a.55.55 0 00-.091-.138c-.01-.012-.014-.027-.025-.038h-.001l-.001-.002-1.607-1.6c-.017-.017-.039-.024-.058-.038a.507.507 0 00-.087-.058.515.515 0 00-.093-.033.507.507 0 00-.103-.02.5.5 0 00-.095.005.53.53 0 00-.104.02.477.477 0 00-.094.045c-.02.011-.042.015-.061.029L4.23 23.486l-.901-.897 2.399-2.386 4.361 4.289-.928.919zm6.819-7.017c-.015-.002-.03.004-.045.003a.556.556 0 00-.3.075.492.492 0 00-.083.061c-.013.011-.028.017-.04.029l-4.698 5.146-4.328-4.257 2.833-2.818a.534.534 0 00-.379-.911v-.001l-2.219.013.028-1.607 3.104.027a6.947 6.947 0 004.981 2.101c.437 0 .864-.045 1.279-.123.04.032.079.065.13.085l2.41.96.152.758.178.885-3.003-.427zm4.041.178l-.313-1.558 1.446-1.08.947 1.257-2.08 1.381zm3.754-2.831l-.838.785-.931-1.236.831-.637a.735.735 0 01.543-.143.718.718 0 01.48.284.713.713 0 01-.085.947z"/>
      <path fill="var(--color1, #212121)" d="M13.602 18.544l-2.143-2.133a.534.534 0 00-.753 0l-2.142 2.133a.537.537 0 000 .756l2.142 2.133a.536.536 0 00.753 0l2.143-2.133a.535.535 0 000-.756zm-2.519 1.759l-1.387-1.381 1.387-1.381 1.387 1.381-1.387 1.381zM17.164 5.071l-.258 1.036c.071.018 1.738.452 1.738 2.149h1.067c0-2.017-1.666-2.965-2.547-3.185zM19.711 9.322h-1.067v1.067h1.067V9.322z"/>
    </symbol>
    <symbol id="clock" viewBox="0 0 32 32">
      <path fill="var(--color1, #212121)" d="M31.297 15.301C31.295 6.849 24.442-.002 15.989 0S.686 6.855.688 15.308a15.304 15.304 0 0010.649 14.576.662.662 0 00.529-.065.637.637 0 00.283-.356l3.865-12.25a1.912 1.912 0 10-.84-3.635l-5.106-5.107a.637.637 0 00-.902.902l5.103 5.109a1.876 1.876 0 00.536 2.309l-3.683 11.673C3.844 25.783.118 17.71 2.799 10.432S13.553-.572 20.831 2.109s11.004 10.754 8.323 18.032a14.042 14.042 0 01-7.462 7.973l-.398-1.874a.638.638 0 00-1.048-.344l-3.837 3.426a.637.637 0 00.231 1.084l4.899 1.563a.638.638 0 00.819-.74l-.391-1.839a15.255 15.255 0 009.329-14.089zm-15.305-.637a.638.638 0 110 1.277.638.638 0 010-1.277zm2.101 14.864l2.184-1.948.603 2.84-2.787-.892z"/>
      <path fill="var(--color2, #2196f3)" d="M15.354 3.185V4.46a.638.638 0 101.276 0V3.185a.638.638 0 00-1.276 0zM3.876 14.664a.638.638 0 000 1.276h1.275a.638.638 0 100-1.276H3.876zM28.108 15.939a.638.638 0 100-1.276h-1.275a.638.638 0 000 1.276h1.275z"/>
    </symbol>
    <symbol id="diagram" viewBox="0 0 32 32">
      <path fill="var(--color2, #2196f3)" d="M14.926 14.965h1.066v4.798h-1.066v-4.797zM19.19 17.097h1.066v2.665H19.19v-2.665zM10.661 18.696h1.066v1.066h-1.066v-1.066zM7.463 18.163h1.066v1.599H7.463v-1.599z"/>
      <path fill="var(--color1, #212121)" d="M1.599 28.291h25.587a1.6 1.6 0 001.599-1.599V24.56a1.6 1.6 0 00-1.599-1.599h-.533V9.668L29.681 6.8a1.608 1.608 0 10-.746-.763L26.654 8.2V6.97a1.6 1.6 0 00-1.599-1.599H3.733A1.6 1.6 0 002.134 6.97v15.992h-.533a1.6 1.6 0 00-1.599 1.599v2.132a1.6 1.6 0 001.599 1.599zM30.384 4.837a.533.533 0 110 1.067.533.533 0 010-1.067zM3.198 6.969c0-.294.239-.533.533-.533h21.322c.294 0 .533.239.533.533v2.239l-1.066 1.013V8.035a.533.533 0 00-.533-.533H4.797a.533.533 0 00-.533.533v13.326c0 .294.239.533.533.533h19.19a.533.533 0 00.533-.533v-9.674l1.066-1.01v12.284H3.198V6.969zm4.798 6.93a1.598 1.598 0 101.107 2.749l1.853.93a.532.532 0 00.636-.123l3.939-4.431 3.872 2.901a.533.533 0 00.686-.039l3.365-3.188v8.131H5.33V8.569h18.124v2.66l-3.771 3.572-3.904-2.927a.533.533 0 00-.718.072l-3.993 4.493-1.493-.746c.011-.064.018-.129.02-.193a1.6 1.6 0 00-1.599-1.599zm.533 1.599a.533.533 0 11-1.067 0 .533.533 0 011.067 0zm3.198 8.528h5.331v.533a.533.533 0 01-.533.533h-4.264a.533.533 0 01-.533-.533v-.533zm-10.661.534c0-.294.239-.533.533-.533h9.062v.533a1.6 1.6 0 001.599 1.599h4.264a1.6 1.6 0 001.599-1.599v-.533h9.062c.294 0 .533.239.533.533v2.132a.533.533 0 01-.533.533H1.598a.533.533 0 01-.533-.533V24.56z"/>
    </symbol>
    <symbol id="envelope" viewBox="0 0 32 32">
      <path d="M29 4H3C1.346 4 0 5.346 0 7v18c0 1.654 1.346 3 3 3h26c1.654 0 3-1.346 3-3V7c0-1.654-1.346-3-3-3zm0 2c.136 0 .265.028.383.077L16 17.676 2.617 6.077A.996.996 0 013 6h26zm0 20H3a1 1 0 01-1-1V8.19l13.345 11.565a.998.998 0 001.31 0L30 8.19V25a1 1 0 01-1 1z"/>
    </symbol>
    <symbol id="facebook" viewBox="0 0 32 32">
      <path d="M21.329 5.313h2.921V.225C23.746.156 22.013 0 19.994 0c-4.212 0-7.097 2.649-7.097 7.519V12H8.249v5.688h4.648V32h5.699V17.689h4.46l.708-5.688h-5.169V8.082c.001-1.644.444-2.769 2.735-2.769z"/>
    </symbol>
    <symbol id="instagram" viewBox="0 0 32 32">
      <path d="M31.969 9.408c-.075-1.7-.35-2.869-.744-3.882a7.806 7.806 0 00-1.851-2.838A7.867 7.867 0 0026.542.844C25.523.45 24.36.175 22.66.1 20.947.019 20.403 0 16.059 0s-4.888.019-6.595.094c-1.7.075-2.869.35-3.882.744a7.803 7.803 0 00-2.838 1.85A7.867 7.867 0 00.9 5.52C.506 6.539.231 7.702.156 9.402c-.081 1.713-.1 2.257-.1 6.601s.019 4.888.094 6.595c.075 1.7.35 2.869.744 3.882a7.895 7.895 0 001.85 2.838 7.867 7.867 0 002.832 1.844c1.019.394 2.182.669 3.882.744 1.706.075 2.25.094 6.595.094s4.888-.019 6.595-.094c1.7-.075 2.869-.35 3.882-.744a8.184 8.184 0 004.682-4.682c.394-1.019.669-2.182.744-3.882.075-1.707.094-2.251.094-6.595s-.006-4.888-.081-6.595zm-2.882 13.065c-.069 1.563-.331 2.407-.55 2.969a5.31 5.31 0 01-3.038 3.038c-.563.219-1.413.481-2.969.55-1.688.075-2.194.094-6.464.094s-4.782-.019-6.464-.094c-1.563-.069-2.407-.331-2.969-.55a4.926 4.926 0 01-1.838-1.194 4.974 4.974 0 01-1.194-1.838c-.219-.563-.481-1.413-.55-2.969-.075-1.688-.094-2.194-.094-6.464s.019-4.782.094-6.464c.069-1.563.331-2.407.55-2.969a4.868 4.868 0 011.2-1.838A4.974 4.974 0 016.639 3.55c.563-.219 1.413-.481 2.969-.55 1.688-.075 2.194-.094 6.464-.094 4.276 0 4.782.019 6.464.094 1.563.069 2.407.331 2.969.55a4.914 4.914 0 011.838 1.194 4.974 4.974 0 011.194 1.838c.219.563.481 1.413.55 2.969.075 1.688.094 2.194.094 6.464s-.019 4.77-.094 6.458z"/>
      <path d="M16.059 7.783c-4.538 0-8.22 3.682-8.22 8.22s3.682 8.22 8.22 8.22c4.539 0 8.22-3.682 8.22-8.22s-3.682-8.22-8.22-8.22zm0 13.552a5.333 5.333 0 010-10.664 5.333 5.333 0 010 10.664zM26.524 7.458a1.919 1.919 0 11-3.838 0 1.919 1.919 0 013.838 0z"/>
    </symbol>
    <symbol id="linkedin" viewBox="0 0 32 32">
      <path d="M31.992 32v-.001H32V20.263c0-5.741-1.236-10.164-7.948-10.164-3.227 0-5.392 1.771-6.276 3.449h-.093v-2.913h-6.364v21.364h6.627V21.42c0-2.785.528-5.479 3.977-5.479 3.399 0 3.449 3.179 3.449 5.657v10.401h6.62zM.528 10.636h6.635V32H.528V10.636zM3.843 0C1.722 0 0 1.721 0 3.843s1.721 3.879 3.843 3.879c2.121 0 3.843-1.757 3.843-3.879A3.846 3.846 0 003.843 0z"/>
    </symbol>
    <symbol id="smartphone" viewBox="0 0 32 32">
      <path d="M23 0H9C7.346 0 6 1.346 6 3v26c0 1.654 1.346 3 3 3h14c1.654 0 3-1.346 3-3V3c0-1.654-1.346-3-3-3zM9 2h14a1 1 0 011 1v21H8V3a1 1 0 011-1zm14 28H9a1 1 0 01-1-1v-3h16v3a1 1 0 01-1 1z"/>
      <path d="M10.707 27.478c.391.365.391.956 0 1.321s-1.024.365-1.414 0c-.391-.365-.391-.956 0-1.321s1.024-.365 1.414 0z"/>
    </symbol>
    <symbol id="twitter" viewBox="0 0 32 32">
      <path d="M32 6.078c-1.19.522-2.458.868-3.78 1.036a6.523 6.523 0 002.886-3.626 13.11 13.11 0 01-4.16 1.588A6.574 6.574 0 0022.154 3c-3.632 0-6.556 2.948-6.556 6.562 0 .52.044 1.02.152 1.496-5.454-.266-10.28-2.88-13.522-6.862a6.605 6.605 0 00-.898 3.316 6.57 6.57 0 002.914 5.452 6.479 6.479 0 01-2.964-.808v.072c0 3.188 2.274 5.836 5.256 6.446a6.548 6.548 0 01-1.72.216 5.8 5.8 0 01-1.242-.112c.85 2.598 3.262 4.508 6.13 4.57a13.182 13.182 0 01-8.134 2.798c-.538 0-1.054-.024-1.57-.09A18.469 18.469 0 0010.064 29c12.072 0 18.672-10 18.672-18.668 0-.29-.01-.57-.024-.848A13.087 13.087 0 0032 6.078z"/>
    </symbol>
    <symbol id="brand" viewBox="0 0 57 32">
      <path d="M14.27 23.859c.13.147.199.332.196.521.007.123-.017.247-.07.361s-.132.216-.233.297c-.252.175-.565.26-.881.24h-1.549v-3.302h1.517c.299-.018.596.059.84.219.098.075.176.17.227.277s.074.224.068.341c.009.182-.054.361-.176.505-.118.131-.28.222-.462.258.205.034.391.134.523.282zm-1.816-.499h.648c.147.01.294-.029.412-.11.049-.04.087-.09.111-.146s.034-.116.028-.176c.005-.06-.005-.12-.029-.175s-.061-.106-.108-.147c-.122-.083-.273-.123-.425-.111h-.638v.866zm1.124 1.267c.052-.041.093-.093.12-.151s.038-.121.034-.184c.004-.064-.008-.127-.035-.186s-.069-.111-.121-.153c-.127-.086-.283-.128-.44-.119h-.68v.908h.689c.155.008.309-.032.435-.114zM17.371 25.278l-.844-1.291h-.317v1.291h-.726v-3.302h1.374c.346-.022.689.078.957.281.192.179.308.415.327.666s-.061.499-.224.7c-.17.178-.401.296-.655.336l.898 1.32h-.789zm-1.161-1.74h.594c.412 0 .618-.167.618-.5.004-.068-.007-.136-.033-.2s-.066-.122-.118-.171c-.13-.099-.298-.147-.467-.134h-.601l.007 1.005zM21.339 24.614h-1.446l-.255.665h-.761l1.328-3.265h.823l1.323 3.265h-.761l-.25-.665zm-.194-.5l-.529-1.394-.529 1.394h1.057zM26.305 25.278h-.721l-1.616-2.245v2.245h-.719v-3.302h.719l1.616 2.258v-2.258h.721v3.302zM30.417 24.488c-.149.249-.376.452-.652.582-.314.145-.662.217-1.013.208h-1.283v-3.302h1.283c.351-.008.698.061 1.013.203.276.127.503.328.652.576.148.269.226.565.226.866s-.077.598-.226.866zm-.824-.079c.206-.219.319-.499.319-.788s-.113-.569-.319-.788c-.249-.199-.573-.3-.902-.281h-.5v2.137h.5c.329.019.654-.082.902-.281zM21.79 3.609s9.301 3.215 9.103 7.867v7.869s-9.294-3.217-9.1-7.869l-.004-7.867zM39.179 17.503c1.757-1.107 3.788-1.792 5.909-1.994v-2.463c-2.444.862-4.517 2.426-5.909 4.457z"/>
      <path d="M38.124 18.245c1.438-2.651 3.93-4.696 6.964-5.715V5.432s-13.245 4.58-12.965 11.205V27.84s.59-.205 1.519-.589c0-.358 0-.719.042-1.082.274-3.076 1.871-5.926 4.44-7.924z"/>
      <path d="M36.864 22.407c.07-.777.225-1.546.463-2.294-1.599 1.725-2.568 3.866-2.77 6.122-.019.213-.03.426-.035.645.752-.331 1.628-.744 2.548-1.229-.235-1.067-.304-2.159-.206-3.244zM37.391 22.447c-.088.982-.033 1.969.164 2.938 3.619-1.983 7.685-5.046 7.528-8.748v-.323c-2.585.265-5.004 1.3-6.885 2.946-.44 1.02-.712 2.094-.807 3.188z"/>
    </symbol>
    <symbol id="company" viewBox="0 0 57 32">
      <path d="M19.417 26.187c.008 0 .017.002.025.005s.015.007.02.013l.116.111c-.09.09-.202.162-.327.211-.147.053-.305.079-.464.076-.149.003-.298-.021-.436-.071-.125-.045-.237-.113-.329-.2-.094-.089-.166-.194-.212-.308-.051-.127-.076-.261-.074-.396-.002-.135.025-.27.08-.397.051-.115.127-.22.225-.308.099-.087.218-.155.349-.201.143-.048.296-.072.449-.071.143-.003.285.019.417.064.115.043.221.104.313.178l-.097.119c-.007.008-.015.016-.025.021-.011.007-.025.01-.039.009-.015-.001-.03-.005-.042-.013l-.052-.032-.073-.04c-.031-.015-.064-.028-.097-.039-.043-.013-.087-.024-.132-.032-.057-.009-.115-.013-.173-.013-.111-.001-.22.017-.323.053-.096.034-.182.084-.253.149-.073.069-.128.15-.164.238-.041.101-.061.207-.06.313-.002.108.018.216.06.318.035.087.09.167.161.236.067.064.149.114.241.147.095.034.197.051.3.05.059.001.119-.003.177-.01.096-.01.188-.039.269-.085.041-.023.079-.049.115-.078.015-.012.035-.02.055-.02zM22.776 25.629c.002.134-.025.267-.079.393-.047.114-.122.218-.219.305s-.214.155-.344.2c-.285.094-.599.094-.884 0-.129-.046-.245-.114-.342-.201-.097-.089-.172-.194-.221-.308-.105-.255-.105-.533 0-.787.05-.115.125-.22.221-.31.097-.084.214-.15.342-.193.284-.096.6-.096.884 0 .129.046.246.114.343.201.096.088.17.191.22.304.054.127.081.261.079.395zm-.306 0c.002-.107-.016-.214-.055-.316-.033-.087-.086-.168-.156-.236-.068-.065-.152-.116-.246-.149-.207-.069-.436-.069-.643 0-.094.033-.178.084-.246.149-.071.068-.125.149-.157.236-.074.206-.074.426 0 .632.033.087.086.168.157.236.068.065.152.115.246.148.207.067.436.067.643 0 .094-.033.177-.083.246-.148.07-.069.123-.149.156-.236.039-.102.058-.209.055-.316zM25.067 25.96l.031.071c.012-.025.022-.048.033-.071.011-.024.024-.047.038-.07l.743-1.174c.015-.02.028-.033.042-.037.02-.005.04-.007.061-.006h.22v1.909h-.26v-1.404-.059c-.001-.022-.001-.044 0-.066l-.747 1.19c-.009.018-.025.033-.044.043s-.041.016-.064.016h-.042c-.023 0-.045-.005-.064-.016s-.034-.026-.044-.044l-.769-1.198v1.533h-.252v-1.905h.22c.021-.001.041.001.061.006.018.008.032.021.041.037l.759 1.175c.015.022.028.045.038.068zM27.864 25.865v.715h-.291v-1.906h.649c.122-.002.245.012.362.042.094.023.181.064.256.119.065.052.114.116.145.187.034.078.051.161.049.244.001.084-.017.167-.054.244-.035.073-.089.138-.157.191-.075.057-.162.1-.257.126-.113.031-.232.046-.35.044l-.352-.005zm0-.205h.352c.076.001.153-.009.225-.029.06-.018.116-.046.163-.082.044-.035.078-.078.099-.126.024-.051.036-.105.035-.16.003-.053-.007-.106-.029-.155s-.057-.094-.102-.13c-.111-.075-.251-.112-.391-.102h-.352v.786zM31.772 26.583h-.23c-.023.001-.046-.006-.064-.018-.016-.012-.029-.027-.038-.044l-.198-.461h-.993l-.205.461c-.008.017-.02.032-.036.043-.018.013-.042.02-.065.019h-.23l.872-1.909h.302l.884 1.909zm-1.439-.709h.82l-.346-.777c-.026-.058-.048-.118-.065-.179l-.033.1c-.01.03-.022.058-.032.081l-.343.776zM33.029 24.682c.017.008.032.02.044.034l1.272 1.439v-.067-1.415h.26v1.909h-.145c-.021.001-.041-.003-.06-.011-.018-.009-.034-.021-.047-.035l-1.271-1.438c.001.022.001.044 0 .066v1.419h-.26v-1.909h.154c.018 0 .036.003.052.009zM36.748 25.823v.758h-.291v-.758l-.804-1.15h.26c.022-.001.045.005.063.016.016.012.029.027.039.043l.503.742c.02.032.038.061.052.088s.026.054.036.081l.038-.082c.014-.03.031-.059.049-.087l.496-.747c.01-.015.023-.028.038-.04.017-.013.04-.02.063-.019h.263l-.806 1.155zM24.923 21.47c.127.014.254.025.384.035 1.962-.763 3.622-2.011 4.772-3.588s1.74-3.415 1.695-5.282l-2.162-1.879c.44 1.988.234 4.043-.594 5.935s-2.246 3.547-4.094 4.779z"/>
      <path d="M24.151 21.383l.058.01c1.975-1.228 3.481-2.942 4.323-4.921s.981-4.133.399-6.181l-3.08-2.676c1.246 2.2 1.747 4.661 1.446 7.098s-1.393 4.75-3.147 6.67zM34.596 14.841c-.523 2.052-1.794 3.902-3.624 5.276-.534.404-1.111.763-1.722 1.074 1.49-.38 2.859-1.053 4.003-1.966s2.03-2.042 2.592-3.3l-1.249-1.084z"/>
      <path d="M34.106 14.539l-1.778-1.545c-.034 1.762-.61 3.483-1.669 4.986s-2.562 2.731-4.352 3.559h.009c.399 0 .798-.021 1.194-.062 1.673-.593 3.151-1.537 4.303-2.748s1.94-2.65 2.295-4.189zM24.409 6.486L22.287 4.64c-1.897.637-3.528 1.756-4.68 3.212s-1.772 3.179-1.778 4.946c.007 1.952.763 3.846 2.149 5.383s3.322 2.628 5.501 3.101c1.946-2.06 3.085-4.605 3.252-7.266s-.647-5.299-2.323-7.53zM39.008 14.255c-.008-2.316-1.07-4.535-2.955-6.173s-4.439-2.561-7.105-2.567c-1.232-.001-2.453.196-3.602.582l12.99 11.286c.445-.998.673-2.058.672-3.128z"/>
    </symbol>
    <symbol id="companytagline" viewBox="0 0 57 32">
      <path d="M28.493 14.618c-.236-.315-.349-.686-.323-1.061v-1.538c0-.471.107-.83.321-1.075s.581-.367 1.102-.366c.489 0 .836.104 1.042.313.224.266.333.592.308.92v.361h-.875v-.366c.003-.12-.005-.24-.025-.358-.013-.081-.057-.156-.125-.213-.09-.061-.203-.091-.317-.083-.12-.008-.239.024-.333.088-.076.063-.127.145-.145.235-.025.126-.037.253-.034.38v1.866c-.014.18.025.36.112.524.044.055.104.099.175.127s.149.038.226.029c.112.008.223-.022.31-.084.071-.061.117-.141.13-.227.02-.124.03-.249.027-.374v-.379h.875v.346c.025.342-.082.682-.303.967-.201.228-.544.343-1.047.343s-.884-.122-1.1-.375zM32.137 14.633c-.221-.239-.332-.588-.332-1.05v-1.617c0-.457.11-.802.332-1.037s.591-.351 1.109-.35c.515 0 .882.117 1.103.35.221.235.333.58.333 1.037v1.617c0 .457-.112.807-.337 1.048s-.591.361-1.1.361c-.509 0-.886-.122-1.109-.36zm1.517-.388c.079-.15.115-.314.105-.479v-1.98c.01-.161-.025-.322-.103-.469-.044-.057-.106-.101-.179-.129s-.152-.037-.231-.027c-.079-.009-.159 0-.231.028s-.135.072-.18.129c-.08.146-.116.308-.105.469v1.99c-.011.165.025.329.105.479.051.05.114.091.185.119s.147.042.225.042c.078 0 .154-.014.225-.042s.134-.068.185-.119v-.009zM35.735 10.626h.942l.708 2.984.725-2.984h.917l.092 4.308h-.678l-.072-2.994-.699 2.994h-.544l-.725-3.005-.067 3.005h-.685l.085-4.308zM40.176 10.626h1.468c.846 0 1.268.408 1.268 1.223 0 .781-.445 1.171-1.335 1.17h-.5v1.915h-.906l.005-4.308zm1.254 1.841c.09.01.18.003.266-.021s.165-.063.232-.115c.104-.146.15-.316.13-.486.005-.131-.01-.263-.044-.391-.013-.043-.036-.083-.067-.118s-.07-.065-.114-.087c-.126-.052-.265-.076-.404-.069h-.352v1.287h.352zM44.218 10.626h.973l.998 4.308h-.844l-.197-.993h-.868l-.203.993h-.857l.998-4.308zm.832 2.815l-.339-1.808-.339 1.808h.678zM46.996 10.626h.634l1.214 2.457v-2.457h.752v4.308h-.603l-1.221-2.565v2.565h-.777l.002-4.308zM51.357 13.291l-1.009-2.659h.85l.616 1.708.578-1.708h.832l-.997 2.659v1.642h-.87v-1.642zM29.892 16.817v.225h-.739v1.75h-.31v-1.75H28.1v-.225h1.792zM32.209 18.793h-.239c-.024.001-.048-.005-.067-.019-.018-.011-.032-.027-.04-.045l-.214-.469h-1.026l-.214.469c-.006.02-.017.038-.033.053-.019.013-.043.02-.067.019h-.239l.906-1.976h.315l.917 1.968zm-1.5-.734h.855l-.362-.804c-.027-.061-.049-.123-.067-.186-.013.038-.024.073-.034.105l-.033.083-.359.802zM33.771 18.599c.057.003.114.003.17 0 .049-.004.097-.012.145-.023.044-.009.088-.021.13-.036.04-.014.08-.031.121-.048v-.444h-.362c-.009 0-.018-.001-.026-.003s-.016-.007-.023-.012c-.006-.004-.011-.01-.014-.016s-.005-.013-.004-.02v-.152h.703v.757c-.057.035-.118.067-.181.094-.065.028-.132.05-.201.067-.074.019-.15.032-.227.041-.088.008-.176.013-.264.012-.156.001-.311-.024-.457-.073-.136-.047-.259-.117-.362-.206-.101-.09-.18-.196-.234-.313-.057-.131-.085-.27-.083-.41-.002-.141.026-.281.082-.413.052-.117.132-.224.234-.313.103-.089.227-.159.362-.205.155-.05.32-.075.486-.074.084 0 .169.006.252.017.074.01.146.027.216.05.063.021.124.047.181.078.056.031.108.065.158.103l-.087.122c-.007.011-.017.021-.029.027s-.027.01-.041.01c-.02-.001-.04-.006-.056-.016-.027-.013-.056-.028-.089-.047-.038-.021-.079-.039-.121-.053-.054-.019-.11-.033-.167-.044-.076-.012-.153-.018-.23-.017-.12-.001-.238.017-.35.055-.101.035-.192.088-.266.156-.075.071-.132.155-.169.246-.081.214-.081.445 0 .659.04.093.101.178.181.249.074.068.164.121.265.156.115.034.237.047.359.039zM36.659 18.567h.989v.225h-1.292v-1.976h.31l-.007 1.75zM38.678 18.792h-.31v-1.976h.31v1.976zM39.83 16.826c.018.009.034.021.047.036l1.324 1.489c-.002-.023-.002-.047 0-.07v-1.472h.27v1.984h-.156c-.023.002-.046-.002-.067-.011-.019-.01-.035-.023-.049-.038l-1.323-1.488v1.536h-.259v-1.976h.161c.017 0 .035.003.051.009zM43.753 16.817v.217h-1.098v.652h.89v.21h-.89v.674h1.098v.217h-1.417v-1.971h1.417zM11.286 4.616l13.757 3.372v11.818l-13.757-3.371V4.616zm-.882-1.007V17.01l15.52 3.806V7.417L10.404 3.61z"/>
      <path d="M18.722 27.036L3.2 23.227V9.828l15.522 3.807v13.401z"/>
      <path d="M10.661 4.465l13.578 3.33-5.774 4.987L4.885 9.45l5.776-4.985zm-.257-.856L3.2 9.828l15.522 3.807 7.202-6.219-15.52-3.807zM19.595 26.282l6.329-5.465-6.329-1.553v7.018z"/>
    </symbol>
    <symbol id="foster" viewBox="0 0 57 32">
      <path d="M12.878 11.255h-.002c-1.279 0-2.316.921-2.316 2.058v.001c0 1.137 1.037 2.058 2.316 2.058h.002c1.279 0 2.316-.921 2.316-2.058v-.001c0-1.137-1.037-2.058-2.316-2.058zM29.971 10.597c-.004-1.579-.711-3.092-1.967-4.208s-2.958-1.745-4.735-1.749c-1.777.003-3.48.631-4.737 1.748s-1.964 2.63-1.968 4.209v8.706s13.405-1.327 13.406-8.704v-.001zM5.867 22.16c.003 1.098.496 2.151 1.369 2.928s2.058 1.215 3.294 1.218c1.236-.003 2.42-.441 3.294-1.218s1.366-1.829 1.37-2.927v-6.057s-9.327.924-9.327 6.056zm4.663 1.085c-.242 0-.478-.064-.678-.183s-.357-.289-.45-.487c-.092-.198-.117-.417-.069-.627s.163-.404.334-.556c.171-.152.388-.255.625-.297s.482-.02.706.062c.223.082.414.221.548.4s.206.388.206.603c.001.143-.031.284-.092.417s-.151.252-.264.353c-.114.101-.248.182-.397.236s-.308.083-.468.083v-.004zM19.956 22.647h-.9v.93h-.469v-2.275h1.481v.38h-1.012v.588h.9v.378zm2.253-.156c0 .224-.04.42-.119.589s-.193.299-.341.391c-.147.092-.316.137-.506.137-.189 0-.357-.045-.505-.136s-.262-.22-.344-.387c-.081-.169-.122-.363-.123-.581v-.112c0-.224.04-.421.12-.591.081-.171.195-.302.342-.392.148-.092.317-.137.506-.137s.358.046.505.137c.148.091.262.221.342.392.081.17.122.366.122.589v.102zm-.475-.103c0-.238-.043-.42-.128-.544s-.207-.186-.366-.186c-.157 0-.279.061-.364.184-.085.122-.129.301-.13.538v.111c0 .232.043.412.128.541s.208.192.369.192c.157 0 .278-.061.363-.184.084-.124.127-.304.128-.541v-.111zm1.996.592c0-.089-.031-.156-.094-.203-.063-.048-.175-.098-.337-.15-.163-.053-.291-.105-.386-.156-.258-.14-.387-.328-.387-.564 0-.123.034-.232.103-.328.07-.097.169-.172.298-.227.13-.054.276-.081.438-.081.163 0 .307.03.434.089.127.058.226.141.295.248s.106.229.106.366h-.469c0-.104-.033-.185-.098-.242s-.158-.087-.277-.087c-.115 0-.204.024-.267.073-.064.048-.095.111-.095.191 0 .074.037.136.111.186.075.05.185.097.33.141.267.08.461.18.583.298s.183.267.183.444c0 .197-.075.352-.223.464-.149.111-.349.167-.602.167-.175 0-.334-.032-.478-.095-.144-.065-.254-.153-.33-.264s-.113-.241-.113-.388h.47c0 .251.15.377.45.377.111 0 .198-.022.261-.067.063-.046.094-.109.094-.191zm2.501-1.298h-.697v1.895h-.469v-1.895h-.687v-.38h1.853v.38zm1.638.909h-.9v.609h1.056v.377H26.5v-2.275h1.522v.38h-1.053v.542h.9v.367zm1.273.153h-.373v.833H28.3v-2.275h.845c.269 0 .476.06.622.18s.219.289.219.508c0 .155-.034.285-.102.389-.067.103-.168.185-.305.247l.492.93v.022h-.503l-.427-.833zm-.373-.379h.378c.118 0 .209-.03.273-.089.065-.06.097-.143.097-.248 0-.107-.031-.192-.092-.253-.06-.061-.154-.092-.28-.092h-.377v.683zm2.84.41v.802h-.469v-2.275h.887c.171 0 .321.031.45.094s.23.152.3.267c.07.115.105.245.105.392 0 .223-.077.399-.23.528-.152.128-.363.192-.633.192h-.411zm0-.379h.419c.124 0 .218-.029.283-.088.066-.058.098-.142.098-.25 0-.111-.033-.202-.098-.27s-.156-.104-.272-.106h-.43v.714zm2.966.195h-.9v.609h1.056v.377h-1.525v-2.275h1.522v.38h-1.053v.542h.9v.367zm2.175-.909h-.697v1.895h-.469v-1.895h-.688v-.38h1.853v.38zm1.637.909h-.9v.609h1.056v.377h-1.525v-2.275h1.522v.38h-1.053v.542h.9v.367zm1.274.153h-.373v.833h-.469v-2.275h.845c.269 0 .476.06.622.18s.219.289.219.508c0 .155-.034.285-.102.389-.067.103-.168.185-.305.247l.492.93v.022h-.503l-.427-.833zm-.374-.379h.378c.118 0 .209-.03.273-.089.065-.06.097-.143.097-.248 0-.107-.031-.192-.092-.253-.06-.061-.154-.092-.28-.092h-.377v.683zm2.755.615c0-.089-.031-.156-.094-.203-.063-.048-.175-.098-.337-.15-.163-.053-.291-.105-.386-.156-.258-.14-.388-.328-.388-.564 0-.123.034-.232.103-.328.07-.097.169-.172.298-.227.13-.054.276-.081.438-.081.163 0 .307.03.434.089.127.058.226.141.295.248.071.107.106.229.106.366h-.469c0-.104-.033-.185-.098-.242s-.158-.087-.277-.087c-.115 0-.204.024-.267.073-.064.048-.095.111-.095.191 0 .074.037.136.111.186.075.05.185.097.33.141.267.08.461.18.583.298s.183.267.183.444c0 .197-.074.352-.223.464-.149.111-.349.167-.602.167-.175 0-.334-.032-.478-.095-.144-.065-.254-.153-.33-.264-.075-.111-.112-.241-.112-.388h.47c0 .251.15.377.45.377.111 0 .198-.022.261-.067.063-.046.094-.109.094-.191z"/>
    </symbol>
    <symbol id="tagline" viewBox="0 0 56 32">
      <path d="M26.289 3.487h-.072c-.11-.007-.22-.009-.33-.012h-.239c-.208 0-.421.005-.632.016-.016-.001-.032-.001-.048 0-1.912.108-3.785.586-5.517 1.407l-.227.109v11.615l.531-.18c.466-.16.962-.304 1.476-.438 1.388-.356 2.814-.546 4.247-.564v1.526c-.19.001-.374.007-.559.016h-.044c-1.103.061-2.197.228-3.267.502-1.356.339-2.663.849-3.892 1.517V4.104c1.276-.744 2.651-1.304 4.083-1.661 1.258-.325 2.55-.491 3.849-.496h.224c.268.007.53.019.775.037.647.045 1.288.148 1.918.305v1.502c-.611-.142-1.232-.236-1.858-.28-.013-.001-.025-.002-.038-.003-.129-.011-.259-.022-.38-.022zm2.644 1.536c.333.025.678.037 1.027.037 1.365-.005 2.724-.179 4.046-.519 1.355-.341 2.662-.851 3.891-1.518v14.631c-1.277.744-2.652 1.303-4.085 1.661-1.258.323-2.55.49-3.849.495-.984.008-1.964-.108-2.92-.344V4.74c.226.052.458.1.694.14.387.065.796.113 1.194.143zm7.446.113l-.531.179c-.488.164-.981.311-1.476.442-1.441.37-2.922.56-4.41.566-.346 0-.665-.009-.973-.029l-.423-.028v11.948l.364.032c.337.029.685.044 1.035.044 1.172-.005 2.338-.156 3.473-.45.934-.234 1.843-.561 2.714-.975l.227-.109V5.137zM18.747 24.092c-.076-.079-.168-.141-.27-.182s-.211-.06-.321-.056c-.117-.002-.233.02-.341.064-.099.04-.19.099-.265.175s-.133.167-.171.267c-.042.105-.062.217-.061.329v1.99c-.005.14.022.28.078.408.047.102.115.193.199.267.08.067.173.115.273.141.097.027.197.041.297.041.111.001.221-.023.321-.069.099-.044.19-.106.265-.184.074-.077.133-.168.174-.267.043-.1.064-.208.064-.317v-.223h-.52v.177c.002.061-.009.121-.031.177-.017.042-.043.081-.076.112-.032.026-.069.046-.109.057-.035.012-.072.018-.109.019-.046.005-.093-.002-.136-.02s-.08-.049-.108-.086c-.049-.08-.073-.173-.069-.267v-1.856c-.003-.103.019-.205.064-.297.027-.042.065-.076.11-.097s.095-.029.145-.023c.045-.002.089.008.13.027s.076.049.102.085c.058.076.089.171.086.267v.172h.515v-.203c.001-.119-.021-.237-.064-.348-.038-.104-.098-.2-.174-.28zM21.838 24.069c-.166-.14-.375-.217-.592-.219-.106 0-.211.019-.311.056-.101.036-.194.091-.275.163-.086.077-.155.173-.202.279-.052.122-.078.253-.076.386v1.909c-.004.134.022.268.076.391.047.103.116.194.202.267.08.074.173.131.275.168.099.037.205.056.311.056s.211-.019.311-.056c.104-.038.199-.095.281-.168s.15-.165.196-.267c.053-.123.079-.257.076-.391v-1.909c.003-.132-.023-.264-.076-.386-.046-.105-.113-.2-.196-.279zm-.243 2.574c.004.051-.003.102-.021.15s-.046.091-.083.126c-.069.058-.155.089-.245.089s-.176-.032-.245-.089c-.037-.035-.065-.078-.083-.126s-.025-.099-.021-.15v-1.909c-.004-.051.003-.102.021-.15s.046-.091.083-.126c.069-.058.155-.089.245-.089s.176.032.245.089c.037.035.065.078.083.126s.025.099.021.15v1.909zM25.898 27.495v-3.614h-.5l-.657 1.913h-.009l-.662-1.913h-.495v3.614h.516v-2.198h.009l.506 1.554h.257l.51-1.554h.009v2.198h.516zM28.83 24.135c-.08-.089-.18-.157-.292-.197-.121-.039-.247-.058-.374-.056h-.767v3.614h.515v-1.411h.265c.161.007.321-.027.464-.099.117-.065.215-.16.283-.276.06-.096.1-.203.118-.315.02-.136.03-.273.028-.411.005-.174-.012-.347-.05-.516-.034-.125-.1-.239-.19-.332zm-.265 1.102c-.002.065-.019.13-.048.188-.029.056-.076.1-.133.127-.076.034-.159.05-.243.045h-.235v-1.229h.265c.08-.004.16.012.232.045.053.031.096.077.121.133.028.063.044.132.045.201v.24c0 .084.005.171 0 .248h-.005zM31.27 23.881h-.422l-.796 3.614h.515l.151-.776h.702l.151.776h.515l-.816-3.614zm-.476 2.345l.253-1.31h.009l.252 1.31h-.515zM34.597 26.058h-.009l-.778-2.177h-.495v3.614h.515v-2.173h.011l.787 2.173h.484v-3.614h-.515v2.177zM37.743 23.881l-.414 1.437h-.011l-.414-1.437h-.545l.707 2.086v1.527h.515v-1.527l.707-2.086h-.545zM17.311 28.515h.248v.696h.169v-.696h.247v-.143h-.664v.143zM19.398 28.373l-.325.839h.179l.069-.191h.334l.072.191h.183l-.333-.839h-.179zm-.027.507l.114-.311.114.311h-.228zM21.46 28.902h.194v.108c-.057.045-.127.07-.199.071-.034.002-.068-.004-.099-.018s-.058-.035-.079-.062c-.044-.064-.066-.141-.062-.219 0-.187.081-.28.242-.28.042-.004.085.007.119.031s.06.061.07.102l.166-.032c-.036-.164-.154-.247-.356-.247-.108-.003-.213.036-.293.108-.042.042-.075.092-.096.148s-.029.115-.025.175c-.005.115.033.227.108.315.041.042.091.075.146.096s.114.03.173.026c.131.004.259-.044.356-.133v-.331h-.364v.141zM23.566 28.373h-.17v.839h.588v-.143h-.418v-.696zM25.347 28.373h-.17v.839h.17v-.839zM27.088 28.933l-.344-.56h-.165v.839h.158v-.548l.337.548h.169v-.839h-.155v.56zM28.662 28.842h.418v-.143h-.418v-.184h.45v-.143h-.62v.839h.637v-.143h-.467v-.227zM32.479 28.704h-.33v-.331h-.169v.839h.169v-.367h.33v.367h.169v-.839h-.169v.331zM34.062 28.842h.419v-.143h-.419v-.184h.451v-.143h-.62v.839h.636v-.143h-.467v-.227zM36.209 28.842c.146-.023.22-.1.22-.233.004-.036-.001-.072-.016-.105s-.038-.061-.067-.082c-.076-.038-.161-.055-.245-.049h-.356v.839h.169v-.351h.033c.036-.002.072.004.105.019.025.015.045.036.06.061l.183.267h.202l-.102-.164c-.045-.081-.109-.15-.186-.201zm-.17-.116h-.125v-.211h.133c.058-.005.116.002.171.02.012.011.022.024.028.039s.009.031.009.048c-.001.016-.005.032-.013.047s-.019.027-.032.037c-.055.017-.113.024-.171.02zM37.828 28.842h.418v-.143h-.418v-.184h.451v-.143h-.621v.839h.637v-.143h-.467v-.227z"/>
    </symbol>
    <symbol id="yaco" viewBox="0 0 56 32">
      <path d="M19.934 4.046l3.676 3.48-6.824-.004v16.885h17.836v-6.456l3.672 3.476V4.045H19.933zm14.528 13.497L24.038 7.675h10.424v9.868zm-3.237 4.395H19.609V10.582h.821v10.587h10.795v.769zm-8.873 4.718l-.429.884-.429-.884h-.36l.626 1.178v.686h.325v-.686l.625-1.178h-.359zm.539 1.864l.151-.434h.722l.152.434h.338l-.706-1.865h-.291l-.704 1.865h.337zm.513-1.469l.27.774h-.541l.27-.774zm1.708.729c-.047.072-.07.151-.07.237 0 .157.055.285.165.383s.259.146.443.146.343-.05.476-.15l.105.124h.361l-.274-.324c.108-.147.161-.335.161-.565h-.27c0 .126-.026.24-.078.342l-.36-.425.127-.092c.09-.065.154-.13.193-.195s.059-.137.059-.215c0-.118-.044-.216-.131-.296s-.197-.12-.333-.12c-.15 0-.27.043-.359.128s-.133.2-.133.346c0 .06.014.122.042.186s.08.142.152.233c-.138.099-.231.185-.278.257zm.842.412c-.091.07-.19.105-.295.105-.093 0-.167-.027-.223-.081s-.083-.124-.083-.21c0-.1.051-.189.154-.266l.04-.028.407.48zm-.335-.826c-.088-.108-.132-.198-.132-.27 0-.062.018-.114.054-.155s.084-.061.145-.061c.056 0 .103.018.14.052s.055.076.055.124c0 .073-.026.134-.079.181l-.04.032-.142.097zm3.036 1.014c.128-.112.202-.267.22-.466h-.323c-.017.133-.058.228-.122.286s-.16.086-.287.086c-.139 0-.245-.053-.318-.159s-.108-.26-.108-.461v-.165c.002-.199.04-.35.115-.452s.184-.155.325-.155c.121 0 .213.03.275.09s.102.155.118.289h.323c-.02-.204-.094-.362-.219-.474s-.291-.168-.497-.168c-.153 0-.288.036-.405.109s-.205.176-.268.31c-.062.134-.093.289-.093.465v.174c.003.172.035.322.096.452s.149.23.261.301c.114.07.245.105.393.105.213 0 .383-.055.511-.166zm1.904-.262c.063-.138.095-.299.095-.482v-.104c-.001-.182-.033-.341-.097-.478s-.155-.243-.273-.315c-.117-.073-.251-.11-.403-.11s-.287.037-.405.111c-.117.073-.208.18-.273.319s-.096.3-.096.482v.105c.001.178.033.336.097.473s.156.242.274.316c.119.073.254.11.405.11.153 0 .288-.037.405-.11s.208-.18.272-.318zm-.347-1.054c.079.11.118.268.118.475v.097c0 .21-.039.37-.117.479s-.187.164-.33.164c-.142 0-.253-.056-.333-.168s-.119-.27-.119-.475v-.108c.002-.201.042-.356.12-.465s.189-.165.329-.165c.143 0 .254.055.332.165z"/>
    </symbol>
    <symbol id="email-black" viewBox="0 0 32 32">
<path d="M26.667 5.333h-21.333c-1.467 0-2.653 1.2-2.653 2.667l-0.013 16c0 1.467 1.2 2.667 2.667 2.667h21.333c1.467 0 2.667-1.2 2.667-2.667v-16c0-1.467-1.2-2.667-2.667-2.667zM26.133 11l-9.427 5.893c-0.427 0.267-0.987 0.267-1.413 0l-9.427-5.893c-0.333-0.213-0.533-0.573-0.533-0.96 0-0.893 0.973-1.427 1.733-0.96l8.933 5.587 8.933-5.587c0.76-0.467 1.733 0.067 1.733 0.96 0 0.387-0.2 0.747-0.533 0.96z"></path>
</symbol>
<symbol id="person-black" viewBox="0 0 32 32">
<path d="M16 16c2.947 0 5.333-2.387 5.333-5.333s-2.387-5.333-5.333-5.333c-2.947 0-5.333 2.387-5.333 5.333s2.387 5.333 5.333 5.333zM16 18.667c-3.56 0-10.667 1.787-10.667 5.333v1.333c0 0.733 0.6 1.333 1.333 1.333h18.667c0.733 0 1.333-0.6 1.333-1.333v-1.333c0-3.547-7.107-5.333-10.667-5.333z"></path>
</symbol>
<symbol id="phone-black" viewBox="0 0 32 32">
<path d="M24.882 19.773l-3.268-0.373c-0.785-0.090-1.557 0.18-2.11 0.733l-2.367 2.367c-3.641-1.853-6.626-4.825-8.478-8.478l2.38-2.38c0.553-0.553 0.823-1.325 0.733-2.11l-0.373-3.242c-0.154-1.299-1.248-2.277-2.56-2.277h-2.226c-1.454 0-2.663 1.209-2.573 2.663 0.682 10.987 9.469 19.761 20.443 20.443 1.454 0.090 2.663-1.119 2.663-2.573v-2.226c0.013-1.3-0.965-2.393-2.264-2.547z"></path>
</symbol>
<symbol id="icon-send" viewBox="0 0 32 32">
<path fill="#fff" style="fill: var(--color1, #fff)" d="M32 0l-32 18 10.227 3.788 15.773-14.788-11.998 16.186 0.010 0.004-0.012-0.004v8.814l5.735-6.691 7.265 2.691 5-28z"></path>
</symbol>
  </defs>
</svg>
